<svg width="26" height="27" viewBox="0 0 26 27" fill="none" xmlns="http://www.w3.org/2000/svg">
<path d="M18.4167 10.25V8.08332C18.4167 6.88671 17.4466 5.91666 16.25 5.91666H5.41667C4.22005 5.91666 3.25 6.88671 3.25 8.08332V14.5833C3.25 15.7799 4.22005 16.75 5.41667 16.75H7.58333M9.75 21.0833H20.5833C21.78 21.0833 22.75 20.1133 22.75 18.9167V12.4167C22.75 11.22 21.78 10.25 20.5833 10.25H9.75C8.55338 10.25 7.58333 11.22 7.58333 12.4167V18.9167C7.58333 20.1133 8.55338 21.0833 9.75 21.0833ZM17.3333 15.6667C17.3333 16.8633 16.3633 17.8333 15.1667 17.8333C13.9701 17.8333 13 16.8633 13 15.6667C13 14.47 13.9701 13.5 15.1667 13.5C16.3633 13.5 17.3333 14.47 17.3333 15.6667Z" stroke="#2E3543" stroke-width="1.5" stroke-linecap="round" stroke-linejoin="round"/>
</svg>
