<svg width="28" height="29" viewBox="0 0 28 29" fill="none" xmlns="http://www.w3.org/2000/svg">
<path d="M10.5002 6.33333H8.16683C6.87817 6.33333 5.8335 7.378 5.8335 8.66667V22.6667C5.8335 23.9553 6.87817 25 8.16683 25H19.8335C21.1222 25 22.1668 23.9553 22.1668 22.6667V8.66667C22.1668 7.378 21.1222 6.33333 19.8335 6.33333H17.5002M10.5002 6.33333C10.5002 7.622 11.5448 8.66667 12.8335 8.66667H15.1668C16.4555 8.66667 17.5002 7.622 17.5002 6.33333M10.5002 6.33333C10.5002 5.04467 11.5448 4 12.8335 4H15.1668C16.4555 4 17.5002 5.04467 17.5002 6.33333M14.0002 14.5H17.5002M14.0002 19.1667H17.5002M10.5002 14.5H10.5118M10.5002 19.1667H10.5118" stroke="#2E3543" stroke-width="1.5" stroke-linecap="round"/>
</svg>
