<svg width="26" height="27" viewBox="0 0 26 27" fill="none" xmlns="http://www.w3.org/2000/svg">
<path d="M11.185 5.17708C11.6469 3.2743 14.3531 3.27431 14.815 5.17709C15.1134 6.40626 16.5216 6.98957 17.6018 6.33142C19.2739 5.31259 21.1874 7.2261 20.1686 8.8982C19.5104 9.97836 20.0937 11.3866 21.3229 11.685C23.2257 12.1469 23.2257 14.8531 21.3229 15.315C20.0937 15.6134 19.5104 17.0216 20.1686 18.1018C21.1874 19.7739 19.2739 21.6874 17.6018 20.6686C16.5216 20.0104 15.1134 20.5937 14.815 21.8229C14.3531 23.7257 11.6469 23.7257 11.185 21.8229C10.8866 20.5937 9.47836 20.0104 8.3982 20.6686C6.7261 21.6874 4.81259 19.7739 5.83142 18.1018C6.48957 17.0216 5.90626 15.6134 4.67709 15.315C2.77431 14.8531 2.7743 12.1469 4.67708 11.685C5.90626 11.3866 6.48957 9.97836 5.83142 8.8982C4.81259 7.22609 6.7261 5.31259 8.3982 6.33142C9.47836 6.98957 10.8866 6.40626 11.185 5.17708Z" stroke="#2E3543" stroke-width="1.5" stroke-linecap="round" stroke-linejoin="round"/>
<path d="M16.25 13.5C16.25 15.2949 14.7949 16.75 13 16.75C11.2051 16.75 9.75 15.2949 9.75 13.5C9.75 11.7051 11.2051 10.25 13 10.25C14.7949 10.25 16.25 11.7051 16.25 13.5Z" stroke="#2E3543" stroke-width="1.5" stroke-linecap="round" stroke-linejoin="round"/>
</svg>
