<svg width="30" height="30" viewBox="0 0 30 30" fill="none" xmlns="http://www.w3.org/2000/svg">
<path d="M3.67969 22.6735C3.67969 25.1816 5.7204 27.2223 8.22803 27.2223H16.8413C17.3595 27.2223 17.7788 26.8025 17.7788 26.2848C17.7788 26.0258 17.6738 25.7913 17.504 25.6217C17.3344 25.4522 17.1002 25.3473 16.8413 25.3473H8.22803C6.75403 25.3473 5.55469 24.1479 5.55469 22.6735V6.4238C5.55469 4.94934 6.75403 3.75 8.22803 3.75H20.8669C22.3418 3.75 23.5411 4.94934 23.5411 6.4238V18.647C23.5411 18.9059 23.646 19.1403 23.8157 19.31C23.9853 19.4796 24.2196 19.5845 24.4786 19.5845C24.9968 19.5845 25.4161 19.1647 25.4161 18.647V6.4238C25.4161 3.91571 23.3754 1.875 20.8669 1.875H8.22803C5.7204 1.875 3.67969 3.91571 3.67969 6.4238V22.6735Z" fill="#475467"/>
<path d="M19.9658 13.6111H12.7441C12.226 13.6111 11.8066 14.0309 11.8066 14.5486C11.8066 15.0663 12.226 15.4861 12.7441 15.4861H19.9658C20.484 15.4861 20.9033 15.0663 20.9033 14.5486C20.9033 14.0309 20.484 13.6111 19.9658 13.6111Z" fill="#475467"/>
<path d="M19.9658 9.09717H12.7441C12.226 9.09717 11.8066 9.51694 11.8066 10.0347C11.8066 10.5524 12.226 10.9722 12.7441 10.9722H19.9658C20.484 10.9722 20.9033 10.5524 20.9033 10.0347C20.9033 9.51694 20.484 9.09717 19.9658 9.09717Z" fill="#475467"/>
<path d="M19.9658 18.1251H12.7441C12.226 18.1251 11.8066 18.5449 11.8066 19.0626C11.8066 19.5804 12.226 20.0001 12.7441 20.0001H19.9658C20.484 20.0001 20.9033 19.5804 20.9033 19.0626C20.9033 18.5449 20.484 18.1251 19.9658 18.1251Z" fill="#475467"/>
<path d="M9.15106 9.09717H9.14191C8.62463 9.09717 8.20898 9.51694 8.20898 10.0347C8.20898 10.5524 8.63379 10.9722 9.15106 10.9722C9.66925 10.9722 10.0886 10.5524 10.0886 10.0347C10.0886 9.51694 9.66925 9.09717 9.15106 9.09717Z" fill="#475467"/>
<path d="M9.15106 13.6111H9.14191C8.62463 13.6111 8.20898 14.0309 8.20898 14.5486C8.20898 15.0663 8.63379 15.4861 9.15106 15.4861C9.66925 15.4861 10.0886 15.0663 10.0886 14.5486C10.0886 14.0309 9.66925 13.6111 9.15106 13.6111Z" fill="#475467"/>
<path d="M9.15106 18.1251H9.14191C8.62463 18.1251 8.20898 18.5449 8.20898 19.0626C8.20898 19.5804 8.63379 20.0001 9.15106 20.0001C9.66925 20.0001 10.0886 19.5804 10.0886 19.0626C10.0886 18.5449 9.66925 18.1251 9.15106 18.1251Z" fill="#475467"/>
<path d="M21.9951 21.1312C21.837 21.299 21.7364 21.522 21.7364 21.7708V23.5418H19.9648C19.7165 23.5418 19.4942 23.6423 19.3265 23.7997C19.1438 23.9732 19.0279 24.2101 19.0273 24.4793C19.0273 24.9971 19.4467 25.4168 19.9648 25.4168H21.7364V27.1875C21.7364 27.7052 22.1557 28.125 22.6739 28.125C23.1921 28.125 23.6114 27.7052 23.6114 27.1875V25.4168H25.382C25.9002 25.4168 26.3195 24.9971 26.3195 24.4793C26.3195 23.9616 25.9002 23.5418 25.382 23.5418H23.6114V21.7708C23.6114 21.253 23.1921 20.8333 22.6739 20.8333C22.405 20.8338 22.1684 20.9491 21.9951 21.1312Z" fill="#475467"/>
</svg>
