<svg width="40" height="40" viewBox="0 0 40 40" fill="none" xmlns="http://www.w3.org/2000/svg">
<rect width="40" height="40" rx="20" fill="#9B51E0"/>
<g clip-path="url(#clip0_4329_315)">
<path d="M23.334 27.5V25.8333C23.334 24.9493 22.9828 24.1014 22.3577 23.4763C21.7326 22.8512 20.8847 22.5 20.0007 22.5H14.1673C13.2833 22.5 12.4354 22.8512 11.8103 23.4763C11.1852 24.1014 10.834 24.9493 10.834 25.8333V27.5M26.6673 16.6667V21.6667M29.1673 19.1667H24.1673M20.4173 15.8333C20.4173 17.6743 18.9249 19.1667 17.084 19.1667C15.243 19.1667 13.7507 17.6743 13.7507 15.8333C13.7507 13.9924 15.243 12.5 17.084 12.5C18.9249 12.5 20.4173 13.9924 20.4173 15.8333Z" stroke="white" stroke-width="2" stroke-linecap="round" stroke-linejoin="round"/>
</g>
<defs>
<clipPath id="clip0_4329_315">
<rect width="20.3333" height="21" fill="white" transform="translate(9.83398 9.5)"/>
</clipPath>
</defs>
</svg>
