<svg width="40" height="40" viewBox="0 0 40 40" fill="none" xmlns="http://www.w3.org/2000/svg">
<rect width="40" height="40" rx="20" fill="#F2994A"/>
<g clip-path="url(#clip0_4329_318)">
<path d="M11 11.4091H14.2727L16.4655 22.3646C16.5403 22.7413 16.7452 23.0796 17.0444 23.3205C17.3435 23.5613 17.7178 23.6892 18.1018 23.6818H26.0545C26.4385 23.6892 26.8129 23.5613 27.112 23.3205C27.4112 23.0796 27.6161 22.7413 27.6909 22.3646L29 15.5H15.0909M18.3636 27.7728C18.3636 28.2246 17.9973 28.5909 17.5455 28.5909C17.0936 28.5909 16.7273 28.2246 16.7273 27.7728C16.7273 27.3209 17.0936 26.9546 17.5455 26.9546C17.9973 26.9546 18.3636 27.3209 18.3636 27.7728ZM27.3636 27.7728C27.3636 28.2246 26.9973 28.5909 26.5455 28.5909C26.0936 28.5909 25.7273 28.2246 25.7273 27.7728C25.7273 27.3209 26.0936 26.9546 26.5455 26.9546C26.9973 26.9546 27.3636 27.3209 27.3636 27.7728Z" stroke="white" stroke-width="2" stroke-linecap="round" stroke-linejoin="round"/>
</g>
<defs>
<clipPath id="clip0_4329_318">
<rect width="20" height="19.1818" fill="white" transform="translate(10 10.4091)"/>
</clipPath>
</defs>
</svg>
