<svg width="30" height="30" viewBox="0 0 30 30" fill="none" xmlns="http://www.w3.org/2000/svg">
<path fill-rule="evenodd" clip-rule="evenodd" d="M7.68678 0H17.7168L26.2175 8.86058V26.0945C26.2175 28.2534 24.4709 30 22.3194 30H7.68678C5.52787 30 3.78125 28.2534 3.78125 26.0945V3.90553C3.78121 1.74662 5.52783 0 7.68678 0Z" fill="#E5252A"/>
<path opacity="0.302" fill-rule="evenodd" clip-rule="evenodd" d="M17.709 0V8.79311H26.2172L17.709 0Z" fill="white"/>
<path d="M8.12109 22.3838V16.9041H10.4524C11.0297 16.9041 11.4869 17.0615 11.8318 17.3838C12.1766 17.6987 12.349 18.126 12.349 18.6582C12.349 19.1904 12.1766 19.6177 11.8318 19.9325C11.4869 20.2549 11.0297 20.4123 10.4524 20.4123H9.52289V22.3838H8.12109ZM9.52289 19.2204H10.295C10.5049 19.2204 10.6698 19.1754 10.7823 19.0705C10.8947 18.9731 10.9547 18.8381 10.9547 18.6582C10.9547 18.4783 10.8947 18.3434 10.7823 18.2459C10.6699 18.141 10.5049 18.096 10.295 18.096H9.52289V19.2204ZM12.9262 22.3838V16.9041H14.8677C15.25 16.9041 15.6099 16.9565 15.9472 17.069C16.2845 17.1814 16.5919 17.3389 16.8617 17.5562C17.1316 17.7661 17.349 18.051 17.5064 18.4108C17.6563 18.7706 17.7388 19.1829 17.7388 19.6477C17.7388 20.105 17.6563 20.5173 17.5064 20.8771C17.349 21.2369 17.1316 21.5217 16.8617 21.7316C16.5918 21.949 16.2845 22.1064 15.9472 22.2189C15.6099 22.3313 15.25 22.3838 14.8677 22.3838H12.9262ZM14.298 21.1919H14.7028C14.9202 21.1919 15.1226 21.1695 15.31 21.117C15.4899 21.0645 15.6623 20.982 15.8272 20.8696C15.9847 20.7572 16.1121 20.5997 16.202 20.3898C16.292 20.1799 16.337 19.9325 16.337 19.6477C16.337 19.3553 16.292 19.108 16.202 18.8981C16.1121 18.6882 15.9847 18.5308 15.8272 18.4183C15.6623 18.3059 15.4899 18.2234 15.31 18.1709C15.1226 18.1185 14.9202 18.096 14.7028 18.096H14.298V21.1919ZM18.4434 22.3838V16.9041H22.3415V18.096H19.8452V18.973H21.8392V20.1574H19.8452V22.3838H18.4434Z" fill="white"/>
</svg>
