<svg width="26" height="27" viewBox="0 0 26 27" fill="none" xmlns="http://www.w3.org/2000/svg">
<g clip-path="url(#clip0_748_427)">
<path d="M12.049 3.42664C12.3483 2.50538 13.6517 2.50538 13.951 3.42664L15.6944 8.7915C15.8283 9.20349 16.2122 9.48243 16.6454 9.48245L22.2864 9.48266C23.2551 9.4827 23.6579 10.7222 22.8742 11.2917L18.3107 14.6075C17.9602 14.8622 17.8136 15.3135 17.9474 15.7255L19.6904 21.0905C19.9897 22.0118 18.9353 22.7779 18.1516 22.2085L13.5878 18.893C13.2373 18.6384 12.7627 18.6384 12.4122 18.893L7.84844 22.2085C7.06473 22.7779 6.01031 22.0118 6.30962 21.0905L8.05258 15.7255C8.18643 15.3135 8.03979 14.8622 7.68933 14.6075L3.12578 11.2917C2.34211 10.7222 2.74487 9.4827 3.71355 9.48266L9.35457 9.48245C9.78777 9.48243 10.1717 9.20349 10.3056 8.7915L12.049 3.42664Z" stroke="#2E3543" stroke-width="1.5"/>
</g>
<defs>
<clipPath id="clip0_748_427">
<rect width="26" height="26" fill="white" transform="translate(0 0.5)"/>
</clipPath>
</defs>
</svg>
