<svg width="163" height="163" viewBox="0 0 163 163" fill="none" xmlns="http://www.w3.org/2000/svg">
<path d="M55.1251 81.5L72.7084 99.0833L107.875 63.9167M44.8805 17.2949C51.1888 16.7914 57.1775 14.3108 61.9942 10.2061C73.2342 0.627453 89.766 0.627453 101.006 10.2061C105.823 14.3108 111.811 16.7915 118.12 17.2949C132.841 18.4696 144.53 30.1593 145.705 44.8804C146.209 51.1887 148.689 57.1775 152.794 61.9941C162.373 73.2341 162.373 89.7659 152.794 101.006C148.689 105.823 146.209 111.811 145.705 118.12C144.53 132.841 132.841 144.53 118.12 145.705C111.811 146.209 105.823 148.689 101.006 152.794C89.766 162.373 73.2342 162.373 61.9942 152.794C57.1775 148.689 51.1888 146.209 44.8805 145.705C30.1594 144.53 18.4697 132.841 17.2949 118.12C16.7915 111.811 14.3109 105.823 10.2062 101.006C0.627545 89.7659 0.627545 73.2341 10.2062 61.9941C14.3109 57.1775 16.7915 51.1887 17.2949 44.8804C18.4697 30.1593 30.1594 18.4696 44.8805 17.2949Z" stroke="#49B74C" stroke-width="4.8" stroke-linecap="round" stroke-linejoin="round"/>
</svg>
