<svg width="28" height="29" viewBox="0 0 28 29" fill="none" xmlns="http://www.w3.org/2000/svg">
<path d="M5.97454 21.271C8.34478 19.9313 11.0831 19.1667 14 19.1667C16.9169 19.1667 19.6552 19.9313 22.0255 21.271M17.5 12.1667C17.5 14.0997 15.933 15.6667 14 15.6667C12.067 15.6667 10.5 14.0997 10.5 12.1667C10.5 10.2337 12.067 8.66667 14 8.66667C15.933 8.66667 17.5 10.2337 17.5 12.1667ZM24.5 14.5C24.5 20.299 19.799 25 14 25C8.20101 25 3.5 20.299 3.5 14.5C3.5 8.70101 8.20101 4 14 4C19.799 4 24.5 8.70101 24.5 14.5Z" stroke="#2E3543" stroke-width="1.5" stroke-linecap="round" stroke-linejoin="round"/>
</svg>
