<svg width="24" height="25" viewBox="0 0 24 25" fill="none" xmlns="http://www.w3.org/2000/svg">
<path d="M4 6.5C4 5.39543 4.89543 4.5 6 4.5H8C9.10457 4.5 10 5.39543 10 6.5V8.5C10 9.60457 9.10457 10.5 8 10.5H6C4.89543 10.5 4 9.60457 4 8.5V6.5Z" stroke="#229FDB" stroke-width="1.5" stroke-linecap="round" stroke-linejoin="round"/>
<path d="M14 6.5C14 5.39543 14.8954 4.5 16 4.5H18C19.1046 4.5 20 5.39543 20 6.5V8.5C20 9.60457 19.1046 10.5 18 10.5H16C14.8954 10.5 14 9.60457 14 8.5V6.5Z" stroke="#229FDB" stroke-width="1.5" stroke-linecap="round" stroke-linejoin="round"/>
<path d="M4 16.5C4 15.3954 4.89543 14.5 6 14.5H8C9.10457 14.5 10 15.3954 10 16.5V18.5C10 19.6046 9.10457 20.5 8 20.5H6C4.89543 20.5 4 19.6046 4 18.5V16.5Z" stroke="#229FDB" stroke-width="1.5" stroke-linecap="round" stroke-linejoin="round"/>
<path d="M14 16.5C14 15.3954 14.8954 14.5 16 14.5H18C19.1046 14.5 20 15.3954 20 16.5V18.5C20 19.6046 19.1046 20.5 18 20.5H16C14.8954 20.5 14 19.6046 14 18.5V16.5Z" stroke="#229FDB" stroke-width="1.5" stroke-linecap="round" stroke-linejoin="round"/>
</svg>
