<svg width="306" height="524" viewBox="0 0 306 524" fill="none" xmlns="http://www.w3.org/2000/svg">
<path d="M36.4623 489.552C15.4805 516.243 3.41167 548.581 0 561.413H339.035V0C324.109 3.84969 289.523 18.4785 270.588 46.1963C246.92 80.8435 226.45 153.988 218.134 211.733C209.818 269.478 187.429 300.917 164.4 341.981C141.371 383.044 62.6895 456.188 36.4623 489.552Z" fill="#EFF4FC"/>
<path d="M282.319 527H308V362.055C300.95 358.733 282.822 353.683 266.709 360.062C246.567 368.035 238.006 401.423 251.602 425.84C265.198 450.258 276.78 474.178 282.319 488.131C286.75 499.293 284.165 518.695 282.319 527Z" fill="#4A4D60"/>
</svg>
